<mxfile host="app.diagrams.net" modified="2022-04-16T13:08:53.672Z" agent="5.0 (Macintosh; Intel Mac OS X 10_15_7) AppleWebKit/605.1.15 (KHTML, like Gecko) Version/15.4 Safari/605.1.15" etag="BdrZIAILH1hSUMnzj1XW" version="17.4.5" type="github">
  <diagram id="hql9QfjvJZ7JPAMbjUGC" name="Page-1">
    <mxGraphModel dx="555" dy="423" grid="1" gridSize="10" guides="1" tooltips="1" connect="1" arrows="1" fold="1" page="1" pageScale="1" pageWidth="827" pageHeight="1169" math="0" shadow="0">
      <root>
        <mxCell id="0" />
        <mxCell id="1" parent="0" />
        <mxCell id="TNUYhS3Un6mX0tgKTJv0-6" style="edgeStyle=orthogonalEdgeStyle;rounded=0;orthogonalLoop=1;jettySize=auto;html=1;entryX=0.5;entryY=0;entryDx=0;entryDy=0;" edge="1" parent="1" source="TNUYhS3Un6mX0tgKTJv0-1" target="TNUYhS3Un6mX0tgKTJv0-3">
          <mxGeometry relative="1" as="geometry" />
        </mxCell>
        <mxCell id="TNUYhS3Un6mX0tgKTJv0-1" value="model" style="rounded=0;whiteSpace=wrap;html=1;" vertex="1" parent="1">
          <mxGeometry x="270" y="120" width="120" height="60" as="geometry" />
        </mxCell>
        <mxCell id="TNUYhS3Un6mX0tgKTJv0-5" style="edgeStyle=orthogonalEdgeStyle;rounded=0;orthogonalLoop=1;jettySize=auto;html=1;exitX=0.5;exitY=1;exitDx=0;exitDy=0;entryX=0.5;entryY=0;entryDx=0;entryDy=0;" edge="1" parent="1" source="TNUYhS3Un6mX0tgKTJv0-2" target="TNUYhS3Un6mX0tgKTJv0-3">
          <mxGeometry relative="1" as="geometry">
            <mxPoint x="380" y="250" as="targetPoint" />
          </mxGeometry>
        </mxCell>
        <mxCell id="TNUYhS3Un6mX0tgKTJv0-2" value="input" style="rounded=0;whiteSpace=wrap;html=1;" vertex="1" parent="1">
          <mxGeometry x="490" y="120" width="120" height="60" as="geometry" />
        </mxCell>
        <mxCell id="TNUYhS3Un6mX0tgKTJv0-3" value="Source Localiser" style="swimlane;" vertex="1" parent="1">
          <mxGeometry x="70" y="250" width="740" height="370" as="geometry" />
        </mxCell>
        <mxCell id="TNUYhS3Un6mX0tgKTJv0-7" value="Layer 1" style="rounded=1;whiteSpace=wrap;html=1;" vertex="1" parent="TNUYhS3Un6mX0tgKTJv0-3">
          <mxGeometry x="40" y="80" width="80" height="40" as="geometry" />
        </mxCell>
        <mxCell id="TNUYhS3Un6mX0tgKTJv0-8" value="Layer 1" style="rounded=1;whiteSpace=wrap;html=1;" vertex="1" parent="TNUYhS3Un6mX0tgKTJv0-3">
          <mxGeometry x="40" y="150" width="80" height="40" as="geometry" />
        </mxCell>
        <mxCell id="TNUYhS3Un6mX0tgKTJv0-9" value="" style="edgeStyle=orthogonalEdgeStyle;rounded=0;orthogonalLoop=1;jettySize=auto;html=1;" edge="1" parent="TNUYhS3Un6mX0tgKTJv0-3" source="TNUYhS3Un6mX0tgKTJv0-7" target="TNUYhS3Un6mX0tgKTJv0-8">
          <mxGeometry relative="1" as="geometry" />
        </mxCell>
        <mxCell id="TNUYhS3Un6mX0tgKTJv0-10" value="Layer 1" style="rounded=1;whiteSpace=wrap;html=1;" vertex="1" parent="TNUYhS3Un6mX0tgKTJv0-3">
          <mxGeometry x="40" y="220" width="80" height="40" as="geometry" />
        </mxCell>
        <mxCell id="TNUYhS3Un6mX0tgKTJv0-11" value="" style="edgeStyle=orthogonalEdgeStyle;rounded=0;orthogonalLoop=1;jettySize=auto;html=1;" edge="1" parent="TNUYhS3Un6mX0tgKTJv0-3" source="TNUYhS3Un6mX0tgKTJv0-8" target="TNUYhS3Un6mX0tgKTJv0-10">
          <mxGeometry relative="1" as="geometry" />
        </mxCell>
        <mxCell id="TNUYhS3Un6mX0tgKTJv0-12" value="Layer n" style="rounded=1;whiteSpace=wrap;html=1;" vertex="1" parent="TNUYhS3Un6mX0tgKTJv0-3">
          <mxGeometry x="40" y="294.5" width="80" height="40" as="geometry" />
        </mxCell>
        <mxCell id="TNUYhS3Un6mX0tgKTJv0-13" value="" style="edgeStyle=orthogonalEdgeStyle;rounded=0;orthogonalLoop=1;jettySize=auto;html=1;" edge="1" parent="TNUYhS3Un6mX0tgKTJv0-3" source="TNUYhS3Un6mX0tgKTJv0-10" target="TNUYhS3Un6mX0tgKTJv0-12">
          <mxGeometry relative="1" as="geometry" />
        </mxCell>
      </root>
    </mxGraphModel>
  </diagram>
</mxfile>
